<svg fill="black" height="35" viewBox="0 0 149 35" width="149" xmlns="http://www.w3.org/2000/svg"><g><path d="m21.8669 7.15662c-.6602-9.17149 13.7791-9.99746 12.5085.26597-.1847 1.48988-1.0382 3.10571-2.0002 4.92691-.7448 1.4101-1.5546 2.9434-2.1695 4.6366-1.3166 3.6245-2.2284 7.9385-1.4729 11.6637.5383 2.6521.6111 3.6079-.7571 4.6644-1.8277 1.4095-5.1535.2294-6.9844-3.0026-.1297-.2294-.2775-.316-.5834-.3109-.295.0049-.4721.1509-.715.3511l-.027.0223c-1.2189 1.0017-4.7889 2.9592-7.9368 3.966-10.19213 3.2575-16.13187-6.1988-7.74336-14.0557 2.90328-2.7187 1.54132-6.2091.40274-9.1271-.39539-1.0133-.76383-1.95753-.91738-2.77645-1.79408-9.57549 12.2202-10.36041 13.059-.41062.2433 2.88167-2.8651 8.03587-5.2235 11.05757-3.54146 4.537-3.07219 7.7804.2493 9.2486 3.6718 1.621 8.0169-1.5956 10.0168-5.3935 1.8412-3.4947 1.3038-7.5271.7556-11.6402-.1811-1.3587-.3633-2.72623-.4614-4.08608z"/><path clip-rule="evenodd" d="m58.1716 7.53327c-1.57-1.90681-5.1097-5.53692-9.3715-5.64202-6.522-.16182-11.9735 4.07219-15.889 18.35245-2.2319 8.141 1.8065 13.743 7.2227 14.5738 6.4813.9926 13.6437-4.883 16.5098-7.5472.3155-.2986.7423-.4421 1.1705-.3953.4277.0467.8151.2786 1.0614.6389 1.4346 2.082 4.3745 5.5986 7.9186 5.6854 7.4935.1852 13.396-5.8706 16.9879-17.0662 2.8514-8.88844-3.3541-16.333833-9.5811-16.12363401-5.5566.18684401-11.708 5.39845401-14.1138 7.64892401-.2655.25357-.6217.38203-.9841.35867-.3629-.02335-.6999-.19852-.9314-.48379zm19.0367 7.13173c1.709 5.0181-.4412 11.5794-4.1211 11.7061-2.0052.0687-4.7152-1.6617-7.3598-3.3502-2.5607-1.635-5.06-3.2308-6.7983-3.1159-2.4272.1601-4.3541 2.2047-6.1935 4.1565-1.6308 1.7305-3.1929 3.388-4.9737 3.5942-3.5861.4154-7.0033-3.0646-8.3029-7.4004-1.4883-4.9647 1.0377-10.67342 4.8589-11.16389 2.0641-.26438 4.6816 1.66819 7.2726 3.58109 2.4772 1.829 4.93 3.64 6.8515 3.4956 1.9854-.1491 3.9217-2.174 5.8225-4.1616 1.863-1.9484 3.6919-3.86091 5.4994-3.93606 3.582-.14847 6.0687 2.55576 7.4444 6.59456z" fill-rule="evenodd"/><path d="m82.8381 28.5795c.4474 9.3221 14.046 7.8477 12.6931-1.4089-.0618-.4233-.1247-.8408-.1868-1.2534-.6786-4.5047-1.2686-8.4211.6008-12.9262 2.015-4.85592 7.1508-8.24521 11.8068-6.84131 3.541 1.06786 3.666 4.63591-.096 9.54681-.333.4346-.686.8747-1.047 1.3252-2.206 2.7526-4.72 5.8909-4.951 10.5119-.427 8.5083 15.908 9.5188 11.742-3.3039-1.205-3.7095.532-7.2121 2.182-10.537 2.021-4.07476 3.91-7.88271.088-11.47764-5.585-5.25582-15.7259.29986-18.6066 2.08697-.0439.02724-.0861.05351-.1267.07878-.5361.33363-.796.49538-1.1368.47966-.3694-.01704-.5448-.13447-1.0805-.88582-3.1425-4.407351-7.9772-2.36481-6.5888 3.32533.6375 2.60963.2339 5.50142-.941 8.69792-.5897 1.6046-1.262 3.1715-1.899 4.6562-1.3537 3.1549-2.5482 5.9389-2.4525 7.9254z"/><path clip-rule="evenodd" d="m144.98 29.2171c-.253-1.288-.597-3.038-.524-5.682.071-2.6138.796-6.8082 3.387-11.6139 6.929-12.85004-19.298-13.48551-24.66-7.31814-4.989 5.73754 1.329 10.67674 7.165 6.47174 3.111-2.24002 6.176-4.23705 9.096-3.98074 2.135.18689 3 1.24413 3.172 2.37615.188 1.23609-.473 2.57639-1.834 3.39609-2.333 1.4043-5.1 2.9421-10.986 2.7285-17.97-.6541-16.226 18.8733-2.527 19.3539 4.004.1415 7.312-2.5631 8.57-3.6551.497-.4325 1.154-.5259 1.538-.1762.061.0559.127.1172.197.183 1.276 1.1852 4.101 3.8114 6.485 1.8435 1.456-1.2014 1.28-2.0986.921-3.9268zm-12.075-3.0869c-4.042 1.5084-6.716.8543-7.075-1.4658-.318-2.0585 1.648-5.1181 5.973-6.0846 2.871-.6434 5.117.307 5.296 2.0718s-1.404 4.2397-4.194 5.4786z" fill-rule="evenodd"/></g></svg>